<svg xmlns="http://www.w3.org/2000/svg" width="1000" height="1000" viewBox="0 0 264.583 264.583"><defs><path id="a" d="M173.947 472.222C10.198 485.894 28.592 889.892 28.592 889.892h65.847c-2.267-106.772-6.17-53.513 0-172.3 13.756-258.906 153.597-242.327 153.597-242.327s3.919.146 2.985-2.402c-.923-2.047-3.509-3.978-19.17-3.978-11.359 0-29.191 1.112-57.904 3.337"/><path id="b" d="M381.092 513.007H269.881c-14.815 0-26.662 11.804-26.662 26.535v323.94c0 14.574 11.847 26.409 26.662 26.409h323.772c14.695 0 26.662-11.835 26.662-26.409v-323.94c0-14.731-11.967-26.535-26.662-26.535z"/></defs><path fill="#fff" d="M0 0h264.583v264.583H0z"/><g transform="translate(93.299 -101.791) scale(.56028)"><path d="M80.1 340.16c5.483-5.658 13.927-8.207 12.848-20.755-1.617-6.087-1.788-12.614-12.982-15.794-8.702 1.72-11.87 8.343-14.433 15.502.418 12.418 5.965 18.593 14.567 21.047z" fill="#fff" fill-rule="evenodd" stroke="#000" stroke-width=".265"/><path d="M150.48 467.255l21.734-15.12-73.895-104.699-39.309-.756-41.323 75.489-19.531 46.408c1.128 5.808 16.49 7.142 31.389 7.236l95.124.602c13.602.086 27.287-5.477 25.811-9.16z" fill="#79b41d" fill-rule="evenodd"/><path d="M125.034 476.815l-95.199-.178 18.927-70.795 45.171.191 17.905.076z" fill="#b3b3b3" fill-rule="evenodd"/><path d="M125.034 476.815l-35.463-.142-1.52-28.87-18.174-.534-3.707 29.457-36.335-.089 18.927-70.795c-11.557-26.084-6.688-45.187 10.248-59.162l6.273.12c18.604-13.462 19.849-2.849 26.326.507l6.71.13c29.592 21.45 20.602 39.99 13.519 58.672z" fill="#ccc" fill-rule="evenodd"/><path d="M92.272 343.656l6.047 3.78c27.935-4.353 50.296 29.376 69.17 86.935-3.528.838-7.811-5.491-11.34-8.316-15.965-29.075-31.8-54.016-50.27-72.571zM59.01 346.68c-33.053.152-39.28 23.86-47.946 60.071-3.459 14.453-8.035 30.451-10.262 46.896 5.772-3.512 11.708-5.384 17.009-13.607l.756-45.735.755 17.387c15.978-16.567 11.095-3.784 25.325-22.112-.542-22.294 4.833-35.714 14.363-42.9z" fill="#aad400" fill-rule="evenodd"/><path d="M.802 453.647c-2.059 4.977-3.106 9.954-2.646 14.93 24.796-9.628 25.46-22.624 29.482-35.151-3.213-.304-6.426-4.153-9.638-8.694 8.653-9.993 14.654-18.418 17.764-25.135 6.726-2.652 7.657-8.368 13.891-7.938 2.491-6.827 2.365-21.362 2.93-27.592 5.487-9.894 10.576-15.808 15.307-18.143-.945-1.782-1.89-2.561-2.834-2.835-2.016.003-4.032 1.885-6.048 3.591-11.97 8.668-15.205 24.185-14.363 42.9l-9.072 9.828c-5.417 2.496-10.835 5.559-16.253 12.284l-.755-17.387c-.253 15.244-1.526 27.935-.756 45.735-5.67 8.315-11.34 10.63-17.01 13.607zm91.47-109.991l-2.646 2.835 14.552 17.765c19.076 19.811 32.158 47.115 47.625 71.437 6.804 6.26 13.607 11.096 20.41 16.442-1.23-5.979-.774-12.239-4.724-17.764-5.25-1.303-7.977-5.126-11.34-8.316-20.874-38.992-39.976-63.8-57.83-78.619-.174-2.11-2.608-3.177-6.047-3.78z" fill="#004319" fill-rule="evenodd" stroke="#000" stroke-width=".265"/><path d="M79.562 317.434c3.392-.75 4.595-1.187 6.332-1.7.543.44.903.881 2.41 1.322-3.623.197-6.53.593-7.891 1.418zm-1.228.095c-3.46-1.604-5.767-1.158-8.126-.804l7.843 1.654zm.803 11.103l4.583 1.89 3.922.283-1.04 1.795-3.827-.189-.614-.755-6.615-.142-.614.661h-3.78l-.566-1.37h2.834l4.914-2.079z" fill="#76b41c" fill-rule="evenodd"/><path d="M75.433 320.028c-1.427-1.16-2.854-1.253-4.28-.659.344.41.094.454 2.033 1.845 1.21-.395 2.035-.79 2.247-1.186zm6.985-.395c1.405-1.16 2.81-1.253 4.214-.659-.34.41-.093.453-2.002 1.845-1.19-.396-2.004-.79-2.212-1.186z" fill="#7bb51d" fill-rule="evenodd"/><circle cx="72.984" cy="319.853" r=".601" fill="#014413"/><circle cy="319.619" cx="84.643" r=".601" fill="#014413"/><path d="M82.162 326.962c-.795.381-1.602.658-2.486.248-2.104.512-2.647.1-3.132-.348-.278-.8.269-1.283 1.144-1.64-.275-2.388.718-4.379 1.093-6.563-.075 2.283-.83 4.459-.149 6.86 1.275.065 2.751-.727 3.53 1.443z" fill="#7bb51d" fill-rule="evenodd"/><path d="M40.3 429.646c22.623-1.287 45.476-1.422 68.603-.19l1.7 9.072c-23.434-2.395-46.868-2.893-70.303-.756z" fill="#004315" fill-rule="evenodd"/><g transform="translate(-93.692 277.222)"><ellipse transform="rotate(-26.239)" ry="43.59" rx="35.169" cy="210.414" cx="134.585" fill="#ffd900"/><ellipse cx="134.496" cy="210.594" rx="33.326" ry="41.306" transform="rotate(-26.239)" fill="#004315"/><ellipse transform="rotate(-26.239)" ry="30.922" rx="24.949" cy="211.125" cx="136.202" fill="#ffd900"/><ellipse cx="136.379" cy="210.765" rx="23.273" ry="28.846" transform="rotate(-26.239)" fill="#004315"/><ellipse transform="rotate(-26.239)" ry="2.609" rx="2.105" cy="176.253" cx="125.157" fill="#ffd900"/><ellipse cx="136.382" cy="174.337" rx="2.105" ry="2.609" transform="rotate(-26.239)" fill="#ffd900"/><ellipse transform="rotate(-26.239)" ry="2.609" rx="2.105" cy="177.863" cx="146.86" fill="#ffd900"/><ellipse cx="155.872" cy="186.179" rx="2.105" ry="2.609" transform="rotate(-26.239)" fill="#ffd900"/><ellipse transform="rotate(-26.239)" ry="2.609" rx="2.105" cy="197.56" cx="161.734" fill="#ffd900"/><ellipse cx="164.023" cy="211.054" rx="2.105" ry="2.609" transform="rotate(-26.239)" fill="#ffd900"/><ellipse transform="rotate(-26.239)" ry="2.609" rx="2.105" cy="224.212" cx="162.305" fill="#ffd900"/><ellipse cx="156.57" cy="235.241" rx="2.105" ry="2.609" transform="rotate(-26.239)" fill="#ffd900"/><ellipse transform="rotate(-26.239)" ry="2.609" rx="2.105" cy="243.779" cx="147.595" fill="#ffd900"/><ellipse cx="137.393" cy="246.945" rx="2.105" ry="2.609" transform="rotate(-26.239)" fill="#ffd900"/><ellipse transform="rotate(-26.239)" ry="2.609" rx="2.105" cy="244.857" cx="126.205" fill="#ffd900"/><ellipse cx="116.658" cy="237.022" rx="2.105" ry="2.609" transform="rotate(-26.239)" fill="#ffd900"/><ellipse transform="rotate(-26.239)" ry="2.609" rx="2.105" cy="224.869" cx="109.835" fill="#ffd900"/><ellipse cx="106.764" cy="210.245" rx="2.105" ry="2.609" transform="rotate(-26.239)" fill="#ffd900"/><ellipse transform="rotate(-26.239)" ry="2.609" rx="2.105" cy="195.947" cx="109.192" fill="#ffd900"/><ellipse cx="115.698" cy="183.957" rx="2.105" ry="2.609" transform="rotate(-26.239)" fill="#ffd900"/><path d="M214.029 108.768l-2.173.472 5.953 9.922-7.276 3.213-2.363 10.111 5.292 11.15 8.41-3.685 2.74-11.245zm4.725 12.095l-.189.378 3.59 7.182-2.173 10.583-5.292 2.079-3.78-7.748 1.985-10.395z" fill="#ffd900" fill-rule="evenodd"/><path d="M209.112 101.112c-2.304.034-4.882 1.099-3.452 3.14l-.183.653-.999-.422c-4.8-1.438-5.958 1.092-4.873 3.387l.024.877.125.995-.846-.09c-6.059-1.65-4.718 4.379-4.132 6.287l.574.77-.769.632c-2.977 1.23-4.521 6.535.212 8.511l.233 1.012-.601.434c-3.971 2.307-2.326 6.593 2.27 7.892l1.15.739.065 1.332c-1.521 3.714.84 8.253 4.99 7.508l.77.004.066 1.027c.417 5.943 5.236 4.978 7.02 5.26l.931-1.066.438 1.187c1.873 3.967 6.9 5.125 7.799 1.536l.459-.849.47.82c2.721 2.777 7.025 3.288 7.48-.732l.168-.921.731.444c4.498 1.594 5.882-2.53 4.883-4.716l-.244-.943.815-.061c3.044.844 4.794-3.104 2.548-7.298l-.02-.67 1.276-.594c2.792-.117 1.03-4.7-.935-7.57l.372-1.088.208-1.372c2.288-2.366.254-5.567-2.747-6.673l-.644-.603.133-1.033c.353-4.183-3.446-8.64-5.524-7.059l-.776-.511-.176-.871c-.97-5.706-4.65-4.948-5.99-4.438l-.676-.055-.716-.6c-2.008-4.369-6.554-4.546-7.56-2.408l-.532.573-.838-.985c.05-.957-1.4-1.416-2.977-1.392zm-.543 1.95c1.398-.024 3.299 1.066 3.287 2.682.52.938 1.097.768 1.705.017.722 1.747 1.135.506 1.602-.206-.865-3.207 5.218-1.994 4.252 1.606.35 1.345.895.853 1.418.567 1.15 1.952 1.51.966 2.078.756.144-2.133 4.668-2.52 3.686 3.402-.895 1.411-.743 2.065.945 1.606.333.886.946 1.182 2.079.379 1.484-1.67 3.885 2.056 3.118 4.252-1.905.566-1.866 1.134-.567 1.7-.626 1.193-1.445 2.052 1.478 1.773 3.001-.703 3.833 3.138 1.545 5.504-1.715-.168-2.549.175-1.511 1.606-1.454 1.589.44.231 2.267 1.89 3.664 1.682 2.799 5.076 0 5.197-1.695-1.283-2.159-.718-2.078.662-3.46 1.63.284 1.587 1.322 2.173 3.093 2.417 1.537 5.56-1.511 4.725-1.058-.999-1.816-1.218-1.984.094-1.244.608-2.785 1.197.377 2.079.749 3.436 1.002 6.228-3.212 3.213-.357-2.369-1.3-1.719-2.268-.945-2.625-.177-1.99.648 0 1.89-.456 4.02-2.288 3.91-5.008 1.134.24-1.054.423-3.908-1.674-2.057-2.368-1.88-2.884.607-1.394 1.484.172 4.158-3.621 3.5-4.492-.467.234-1.565 1.049-3.695-1.606-2.457-2.396-2.195-2.195.428-1.701 1.701-1.177.944-5.888 1.27-4.914-4.157 2.204-.655 1.206-1.228 0-1.796.081-1.578-.741-1.775-2.173-1.04-3.383 2.349-6.511-2.424-3.119-5.102 1.02-1.446.244-1.867-.566-2.268.247-1.72-.751-1.064-1.418-1.04-3.913.851-7.16-5.461-1.134-5.385.866-1.246 1.312-2.231-.378-1.89.207-.788.853-1.575-.19-2.362-5.501-.005-3.99-6.447.19-4.537.372-.448 1.45-.672 0-1.7 2.04-.36.884-1.3.095-2.174-2.524-.739-2.328-7.537 2.93-3.212.961.48 1.876.511 1.889-1.04 1.138.382.59-.711.378-1.512-4.127-2.69-.578-7.453 2.835-2.551.161 2.22.93 1.494 1.7.756 1.255-.401 1.08-1.14.85-1.89-1.205-2.154-.362-3.04.872-3.06z" fill="#ffd900" fill-rule="evenodd"/></g><g transform="translate(-93.692 277.222)"><path d="M167.578 24.385l-7.75-15.502c-1.346-10.73 7.537-14.612 13.897-9.22 6.147-6.708 18.662 1.382 14.433 9.087l-7.751 16.838z" fill="#ececec" fill-rule="evenodd"/><path d="M174.153 18.337c-8.48 11.61-10.597 4.445-17.293 22.395 2.168 11.092 3.939 21.484 1.89 25.136l2.835 2.834 5.102-1.039 6.237 4.063 5.953-3.212 4.442.755 2.645-2.834c.646-8.544 1.903-16.17 3.024-24.002-3.193-17.79-8.06-11.546-14.835-24.096zm-.804 11.056c5.43 1.545 11.553 1.232 12.757 14.127-1.855 8.81-6.026 12.989-10.489 16.583-1.586.6-3.44.78-5.906 0-4.716-3.811-8.24-8.998-9.685-16.583 1.59-10.411 6.987-13.208 13.323-14.127z" fill="#b3b3b3" fill-rule="evenodd"/><ellipse ry="3.425" rx="1.844" cy="42.835" cx="157.523"/><path d="M156.86 40.732c6.245-16.598 6.787-9.843 17.293-22.395 7.832 12.515 12.087 7.532 14.835 24.096-5.38-18.479-6.835-8.867-14.741-20.505-9.822 9.322-11.94 7.19-17.387 18.804z" fill="#999" fill-rule="evenodd"/><ellipse cx="188.565" cy="43.024" rx="1.844" ry="3.425"/></g><g fill-rule="evenodd"><path d="M64.798 374.037l-1.896 75.902-4.989-.058-1.934-76.379.534-98.088.513-1.258.33-12.332c-.008-1.068-.878-.628-1.559-.52-.116-1.95 4.235-2.651 4.725-.094-.552-.065-1.272-.735-1.323.992l.047 12.048 1.087.19z"/><path d="M53.306 396.22l1.737 13.765 1.47.334c.13 4.725-2.24 9.545 2.405 14.098 1.894-1.743 4.044-3.403 3.876-5.813.57 2.375.964 5.549 2.004 5.813-.425-5.588.792-7.98-.467-11.426l1.604-16.77zm9.488 12.228c.428.628.628 1.622 1.336 1.804-.013.772-.349 1.276-.735 1.737-.29-.562-.579-.661-.869-.868-.168-.891.072-1.782.268-2.673zm-3.742.802c2.788 4.793 1.526 8.172.668 11.693-1.93-3.724-2.45-7.592-.668-11.693z" fill="#ffd900"/><path d="M59.175 259.958h-2.079l1.087-12.331z" fill="#e6e6e6"/><path d="M59.199 262.202l9.608 6.397 7.083 10.824 6.147 5.546 1.27 5.346c1.234 3.07 2.5 5.476 4.176 7.75.364 1.042.492 2.558.501 4.31-.68-.281-1.16-1.063-1.67-1.77-.08-1.426-.113-3.076-.535-2.874-.517-1.885-1.645-3.548-3.14-5.078-.1.712.331.691-.401 2.272-.411.367-.764.783-1.778.634.598-1.256.194-1.418-.16-1.636 1.259-2.05.65-4.098-.134-6.147-2.307-2.249-2.593-1.495-3.006-.802-.281-1.381-.548-2.762-1.871-4.143-1.505.72-4.028.311-6.281.2-1.981-2.292-4.813-3.786-8.219-4.743l-1.543-4.038z" fill="#004314"/><path d="M63.736 267.778l-.637.23 2.198 2.759-2.07 1.263-.307 3.151 2.048 3.157 2.394-1.452.375-3.509zm1.915 3.465l-.042.122 1.374 2.025-.23 3.286-1.516.841-1.454-2.189.181-3.221z" fill="#ffd400"/><path d="M59.653 352.254c-1.599 4.796-3.758 9.433-.868 15.502l-2.74 2.138.267 6.148-1.536 2.739 10.958-.267-1.537-2.807-.2-5.679-2.406-2.94c2.816-6.135 1.06-10.698-1.938-14.834zm.335 5.145c1.365 2.833.664 5.213.073 7.617-.841-2.25-1.35-4.619-.073-7.617zm-.268 12.295c.431.42.872.842 1.611 1.263-.938.27-1.954.303-3.08.006.768-.423 1.134-.846 1.47-1.27z" fill="#ffd900"/></g><path d="M59.671 382.777l8.221 3.118c.408.83.977 1.681-.567 2.268.685 1.134.351 2.268-.472 3.402.455 1.358.804 2.655-.472 3.024.094 3.401.749.297.094 3.401l-11.15-.189c-4.601 10.11-11.64 19-18.143 28.16-2.215-.783-4.27.972-6.71-3.402-2.079-7.966-3.54-15.82 2.552-22.3 6.27-5.295 8.492-9.797 20.222-16.16 2.142-2.335 4.284-2.51 6.425-1.322z" fill="#999" fill-rule="evenodd"/><path d="M152.3 76.2c9.3-8.9 2.4-14.3 21-37.9 1.5-3.2 5-15.1 12.8-15 5 1.1 39.9.1 48.9 9.1 13.4 5 30.9 27.6 44.3 45.7 18 24.1 26.8 71.6 25.2 82.7-2.9 16 7.4 38.6-20.7 69.2-18.8 18-38.5 36.2-65.8 39.8-25.7 3.9-33.1-13.5-43.3-27.7-3.5 11.2-5.3 29.6-12.8 47-7.2 13.3-22 13.5-34.9 12.5-28.8-2.9-56.7-14.1-84-32.6 5.2 1.9-36.2-15-38-56.9-7.1-44.5-6.2-70.8 12.8-103.9 38.5-44 33.1-42.3 40.7-50.3 6-4.5 16.8-13.6 32-24.8 7.6-2.8 15.2-6 22.7-5.6 6.5 1.3 12.8-.8 20.4 13.2 5.5 12.7 13.6 25.2 18.7 35.5" clip-path="url(#a)" clip-rule="evenodd" fill="#b50800" fill-rule="evenodd" transform="translate(29.923 369.851) scale(.04457)"/><path d="M70.5 127.9c-5.8-11.5-13-6.4-30.2-31.1-2.6-2.4-13-9.2-10.7-16.6 2.5-4.5 11.6-38.1 22.8-44.2C61.1 24.6 87.8 14.4 109 6.8c28.3-10.2 76.2-4.9 86.5-.2 14.4 7.4 39.1 4.1 60.2 39.9 11.8 23.3 23.6 47.4 19.1 74.6-3.7 25.7-22.5 27.8-39.1 33.4 9.7 6.6 26.8 13.6 41.3 25.9 10.7 10.7 6.5 24.9 1.9 37-11 26.6-29.9 50.1-55.4 70.9 3.3-4.4-24.8 30.3-65.5 19.9-44.7-6.1-69.5-14.5-95.7-42.3-30.9-49.6-31-44-36.4-53.5-2.6-7.1-8.1-20-14.5-37.9-.5-8.1-1.3-16.3 1.2-23.4 3.1-5.8 3-12.5 18.5-15.7 13.8-1.5 28-5.6 39.4-7.5" clip-path="url(#a)" clip-rule="evenodd" fill="#da0a00" fill-rule="evenodd" transform="translate(29.923 369.851) scale(.04457)"/><path d="M112.8 107.5l-1.6-4.1 23.3-9.7 2.7 5.1c2.9-3.4 5.6-5.4 7.7-5.7 7.8-1.4 12.2 4.3 12.6 5.9l.5-7.2c3-.1 10.9.9 14.3 2.1 5.1 2.2 7.6 3.4 11 10.2 2.1 5.5.6 8.3-.7 11.7-1.2 2.4-3.1 4.8-5.1 6.4l3.1 1.9 17.5-18.3c2.5.9 11.2 9.4 12.5 13.3 2.3 4.7 1.7 9.9.5 12.6l2.5-.2c1.8 9 3.8 15.4 6.4 23.4l-8.2 3c2.9 1.3 5 2.1 7 6.5 1.9 5.1.8 8.5-.7 11.4-1.7 3-3.8 5.4-5.9 7.9l-1.1 4.1c-2.2 3.1-4.1 6.4-5.8 9.4-4.3 9.2-3.4 7-4.8 10.5l-4.1-.4 1.9 3.4c-3 2.2-6 4.4-9.1 6.5l-2-.5s-5.9-6.8-8.5-10l-1.5 1.5c-.7 4.3-3 8.2-5.8 11.1-2.2 1.9-4.5 3.8-7.4 4.6-2.5.5-5.7 1.1-9 .5l-.5-2.5s-2.4.1-3.4.1l-.2 3.6c-4.8.1-7.7-.2-10.7-.4-.7-1.2-1.2-2.1-1.7-3.2-.2-7.8.2-18.4.8-29.2-4.8 10.1-10.7 22.8-11.1 24.9l-2.9-.4c-1.8-1.3-4.7-2.6-8.6-9.2-1.3-2.4-2.1-5.5-2.3-8.3-.2-1.7-.1-3.7.4-5.9l-5.1 4.4-2.1-.8c-.7-1.5-5.4-6.8-10-12.6l-.7-2.6c1.9-1.9 6-5 10.1-8.1l-.3-.8c-3.7 2-8.2.9-9.9.1-3.9-1.9-4.5-3.9-6-6.1-1.2-2.2-2.5-6.1-1.9-11.2.6-2.9 1.1-3.5 3-6.3.7-.9 2-2.2 2.7-2.7 3 1.8 5.3 3.9 8.1 5.8 1 .6 2.5 1.1 3 1.2.1-.4 2.7-2.8 2.7-2.8-.7-3.1-1.3-5.6-1.3-8.9 0-.6-.1-2.2.3-3 4.3-.4 9.8-1.3 13.2-1.8 1.3-.2 3.3-.6 3.4-1.6 0-1-.7-1.4-2-2-2.3-.7-3.9-.8-7-1.2-3.1-.3-6.2-.1-9-1-2.9-.9-7-2.9-8.8-5.7-1.9-3.5-2.6-6.5-1.8-10.3.6-1.8 1.5-3.8 4.4-6 1.9-1.4 4.7-2.5 7.9-2.9 1.7-.2 3.4 0 5.1.5" clip-path="url(#b)" clip-rule="evenodd" fill="#fff" fill-rule="evenodd" transform="translate(29.923 369.851) scale(.04457)"/><path d="M168.4 173.2v.1l-.8-.1z" clip-path="url(#b)" fill="#fff" transform="translate(29.923 369.851) scale(.04457)"/><path d="M118.9 140.3c.5 2.2.9 4.7 1.3 6.5 4.5.1 9.1 0 13.2-4.8 3.5-4.9-.2-13.1-6.5-16.5-.6-.3-4.7-2.4-10.6-2.2-3 .1-5.7.2-7.9-.3-1.9-.3-3.5-2.9-1.6-5.1 1.8-1.7 4.3-1.9 8.1-.1l1.4-7c-4.2-1.2-7.8-1.8-12.1.1-8.6 3.8-7.4 12.6-2 16.8 2.2 1.7 7.3 2.4 10.1 2.6 2.7.2 11.2-.1 14 4.1 1.4 2.3.8 3.9-1.4 4.9-1.9.8-4 1-6 1m-8.9 1.2c1.8-.4 3.9-.5 6.1-1 .5 2.4 1.2 4.8 1.6 7l-6.7.7c-.5-1.9-.6-4.4-1-6.7m26.7 30c-4.5 3.6-10.2 6.9-15.3 11.4-3.9 3.9-7.8 8.3-11.8 11.5l-9.4-11.4 5.2-4.4c1.6 2.2 3.6 4.4 5.4 6l5.2-5.1-4.6-5.6 4.9-3.7 4.2 5.3 7.2-5.6-1.8-2.4c.1.4-.5 1.3-1 2l-5.8-2.5c1.4-2.2 3.1-4.5 2.1-7.1-1.7-3.5-7.1-2.8-8.2 1.4-1.4 3.8-2.6 6.6-5.9 8.6-7.2 4.3-13.3-1.8-14.8-6.6-1.2-4.5-.6-8.6 3-12.3l5.3 3.9c-2.4 3.2-2.9 5.4-1.5 7.7 2.6 3.9 5.7.9 6.6-1.1 1.5-3.1 2.5-6.4 5.2-8.3 4.1-3.2 10-2.2 13.2-.3 6.2 3.6 3.5 10.8 3.8 11.1l2.5-1.8zm-2.8 13.5c-9.6.9-12.1 10.4-8.9 18zm8.4-4.8l-16 34.2c-3.1-3.2-5.7-4.3-7.9-11.2-1.3-4.8-1-10.8 2-15.9 5.2-8.6 13.9-9.6 21.9-7.1M142 216c2.4.2 4.1.1 7 .2.2 1.7-.1 4.5-.3 6.9l-6.5-.2c-.2-2.2-.1-4.6-.2-6.9m9.1-34.1l-7.3-.4c-1.1 10.8-1.1 21.5-.7 31.9l7.3-.2c-.4-9.6-.4-19.6.7-31.3m.5 6.6l4.7 6c1.9-2.3 5-3.3 7.8-.6 4.1 4.7 3.7 9.7 3.6 12.6-.8 6.7-6.5 7.1-11.3 7.5l.7 6.9c.3-.2 11.7 2.3 17-10.7 1.9-5.8.1-16.6-8-23.9-3.7-2.9-9.5-3.7-14.5 2.2m17.8-11.9c1.8 2.2 2.2 3.7 5.8 8.1 3.8 4.6 10 12.1 12.4 15-1.5 1.9-3.2 3.4-5 4.9-7.8-8.8-14.6-17.6-18-23.8zm21.9 27c-2 1.5-4.6 2.6-6 4.5l4.5 6c1.3-1.2 2.7-2.5 5.3-4.5-1.2-2.3-2.3-5.1-3.8-6m-16-33.8c7.5 6.3 14.9 12.2 23.3 17.5 1.6-3.1 3-5.1 4.9-8.1l6.1 4.1c-5.3 8.4-8.4 14.6-11.1 20.7-2.2-.9-4.5-2-6.8-3.2 1.1-2.3 2.1-4.6 3.3-7.2-8.4-5.1-16.2-11.7-24-18.1zm34.7-34.5c-6.1 2.9-11.2 5.2-17.6 8.3-6.7 3.2-12.6 6.3-15.7 8l6.4 12c-1.7 1.4-2 3.7-2 4.5-.1 3.7 1.4 5.6 2.6 6.9 3.2 3.2 6.2 3.8 9.1 4 4.1 0 6.8-1.9 9.8-4.4 1.8-1.6 3.2-4 5.5-6.8 1-1.3 2.5-.5 2.4.9-.3 2.8-3.3 5.9-4.3 7.3l5.5 4c3-3.6 5.5-7.4 5.4-12.4-.1-5.2-5.4-7.6-8.7-7.1-4.6.6-6.5 4.4-9.5 7.8-3.1 3.2-5.8 4.1-7.2 3.8-2.5-.4-3-2.7-2.7-4.4.4-1.4 1.2-2.3 2-3.1l-2.4-1.8 2.7-1.4c-1.5-2.4-2.6-4.6-3.9-7l6.4-3.4 4.3 8.3 6.6-3.3-4.1-8.3 5.9-2.9c.6 2.1 2.6 5.7 4.1 10 2.3-.5 4-1.4 6.5-2.4-3.1-6.7-5.1-13.1-7.1-17.1m-10.4-14.1l-8 8.4c1.9 1 3.7 1.2 6.1.9 1.5-.2 2.7-1 3.5-2.1 1.1-2-.2-5.3-1.6-7.2M169.1 142l5.9 5.9 10.8-11.8c2.4 1 5.8 2.4 8.8 2.6 6.9.1 13.3-3 14.6-8.5 1-6.7-1.3-10.6-3.4-13.7-2.1-2.6-4.2-4.4-6.2-6.2-8 6.7-19 19.5-30.5 31.7m4.7-18.5c2 1.2 4.1 2.5 6 3.5-1.3 2.1-2.8 4-4.2 5.9-1.9-1.3-4.2-2.6-5.6-4 1.3-1.8 2.4-3.7 3.8-5.4m-6.6-20.9l-.7 13.5c1.9-.2 4-.1 6.8-3.1.8-.9 2.1-3.6-.1-6.5-1.6-2.2-3.8-3.2-6-3.9m-6.2-7.3c3.4.1 6.7.3 10.8 1.8 2.5 1.2 4.8 2.2 7.5 6.6 3 5.5 1.8 8.9-.6 12.9-3.2 4.7-9.5 6.4-12.4 6.5l-.7 12H159zm-15.7 11.1c.8-2.5 4.1-1.9 5.4 1.5 1.2 3.2 1.9 7.9 1.6 11-.6 4.3-2.9 5.8-5.5 2-2.6-4.5-2.9-10.1-1.5-14.5m10.7-2.3c1.2 2.9 2.8 7.3 2.7 14.2 0 4.2-2.1 12.8-8.3 12.7-3.9-.1-6.2-2.1-7.4-3.8-4-5.6-6.1-15.3-3.7-23.6 3.9-11.1 13.6-7.3 16.7.5m-40.5 2.2c6-2.9 13.3-6.5 18.2-8.8 1 2.1 2.2 4.4 3.2 6.6l-5.2 2.6 11.5 28.8-6.2 2.5-11.8-28-6.5 3.1zm52.5 51.8c0 8.2-6.6 14.8-14.8 14.8-8.2 0-14.8-6.6-14.8-14.8 0-8.2 6.6-14.8 14.8-14.8 8.2 0 14.8 6.6 14.8 14.8" clip-path="url(#b)" clip-rule="evenodd" fill-rule="evenodd" transform="translate(29.923 369.851) scale(.04457)"/><path d="M75.99 332.704c.438-.672 1.545-.268 1.744-.587.664-.137 1.24.085 2.107-.059.538.397.685.127 1.808.762-.632.607-1.332.626-1.736.846-1.03-.17-1.628-.07-2.273 0-.238.105-.864-.195-1.65-.962z" fill="#79b41b" fill-rule="evenodd"/></g><path fill="#ffd900" fill-rule="evenodd" d="M38.781 112.875l-1.336-12.98 10.531-8.519-13.74-2.988-5.63-12-7.157 11.134-14.014 1.1 9.321 9.87-3.03 12.683 12.913-5.038zm23.593-52.102l2.21-10.447-9.853 4.348-9.355-5.313 1.136 10.615-7.995 7.164 10.552 2.211 4.42 9.74 5.383-9.247 10.726-1.143zm15.498-1.953l5.564-5.304 7.784 1.156-3.582-6.678 3.55-6.686-7.773 1.177-5.586-5.287-1.223 7.405-7.008 3.42 7.022 3.398z"/><path d="M17.747 143.558c-1.327 0-2.365.38-3.11 1.137-.748.757-1.24 1.853-1.479 3.277h8.663c0-.554-.071-1.096-.213-1.62a3.946 3.946 0 00-.695-1.408 3.53 3.53 0 00-1.265-1.003c-.52-.256-1.155-.383-1.9-.383m-.135-4.822c1.537 0 2.944.241 4.22.72 1.275.481 2.372 1.178 3.291 2.095.918.917 1.634 2.04 2.148 3.368.516 1.33.773 2.835.773 4.517 0 .528-.023.955-.067 1.286-.047.33-.128.594-.247.789a.947.947 0 01-.48.407c-.203.073-.46.11-.773.11H13.091c.225 1.954.813 3.369 1.77 4.249.953.88 2.184 1.317 3.692 1.317.807 0 1.5-.097 2.081-.292a10.3 10.3 0 001.557-.653c.454-.24.873-.458 1.254-.654.38-.195.778-.292 1.197-.292.552 0 .97.201 1.254.608l2.014 2.502a10.333 10.333 0 01-2.317 2.017 12.02 12.02 0 01-2.55 1.216c-.874.292-1.747.496-2.62.61-.874.112-1.705.168-2.496.168-1.627 0-3.153-.267-4.578-.802a10.48 10.48 0 01-3.74-2.376c-1.067-1.052-1.91-2.358-2.528-3.921-.618-1.563-.93-3.38-.93-5.453 0-1.562.265-3.043.795-4.439s1.29-2.62 2.284-3.672c.992-1.05 2.194-1.886 3.604-2.502 1.41-.616 3.002-.923 4.78-.923" fill="#79b41d" fill-rule="evenodd"/><path d="M44.828 129.982c-.698-.005-1.396.177-1.914.483-3.83 2.26-5.37 7.307-5.473 7.34l.002.003c.066-.087 5.284.237 8.73-2.586 1.065-.873 1.855-2.872.955-4.185-.506-.74-1.402-1.05-2.299-1.054zm-2.375 9.118c-1.749 0-3.318.303-4.708.909-1.39.608-2.573 1.429-3.55 2.464a10.789 10.789 0 00-2.25 3.617 12.244 12.244 0 00-.781 4.373c0 2.04.305 3.831.915 5.369.61 1.539 1.44 2.827 2.49 3.863a10.35 10.35 0 003.683 2.34c1.404.526 2.906.789 4.51.789.778 0 1.598-.055 2.458-.166.86-.112 1.72-.31 2.578-.6.86-.288 1.698-.688 2.515-1.199.816-.51 1.576-1.173 2.282-1.985l-1.984-2.465c-.28-.4-.692-.599-1.236-.599a2.54 2.54 0 00-1.179.289c-.375.192-.786.406-1.234.643-.45.237-.96.452-1.533.644s-1.255.288-2.05.288c-1.484 0-2.697-.434-3.638-1.298-.94-.865-1.521-2.26-1.742-4.184h13.186c.308 0 .562-.035.76-.11a.927.927 0 00.475-.4c.117-.191.198-.45.242-.776.043-.325.065-.747.065-1.266 0-1.657-.253-3.138-.76-4.45-.507-1.307-1.213-2.413-2.116-3.316-.904-.902-1.985-1.59-3.242-2.065-1.257-.473-2.642-.709-4.156-.709zm.132 4.748c.734 0 1.36.127 1.876.378.513.252.93.581 1.245.988.316.406.544.869.685 1.386.139.518.208 1.05.208 1.598h-8.532c.234-1.406.72-2.482 1.454-3.23.735-.746 1.757-1.12 3.064-1.12z" fill="#004319" fill-rule="evenodd"/><path fill="#79b41d" fill-rule="evenodd" d="M56.105 130.436v32.388h6.662v-32.388zm25.003 32.388h-5.99l-8.54-22.172h5.484c.466 0 .858.11 1.179.33.318.22.532.496.648.824l3.059 9.943c.241.812.47 1.603.69 2.372.217.77.407 1.54.562 2.31.155-.77.347-1.538.573-2.31.226-.769.469-1.56.721-2.372l3.186-9.943a1.67 1.67 0 01.639-.824c.31-.22.677-.33 1.104-.33h5.225z"/><g transform="translate(-133.952 139.157) scale(.9504)"><g fill-rule="evenodd"><path d="M356.976-20.918c2.743 6.742 3.813 11.644 4.847 16.507-8.979 6.534-15.616 18.003-20.991 32.132l60.528-.095c-5.151-19.294-10.489-28.81-15.955-31.644.094-3.053 3.265-11.235 5.24-17.424 2.046-3.482-.581-10.01-2.357-15.984l-29.852-.817c-1.872 5.549-3.696 10.462-1.46 17.325z" fill="#79b41d"/><path d="M406.236-16.07l-.13 35.11-6.813.262-4.717-41.792z" fill="#fff"/><path d="M406.105 19.04l.477 8.49-5.222.096-2.067-8.324z" fill="#77b41b"/><path d="M375.518-71.225c3.545-1.638 6.959-4.154 11.524-2.053 10.147 12.175-.262 22.291-6.69 23.841l-11.324-.198c-9.93-5.11-12.23-14.295-5.827-23.908 4.207-1.554 8.286-.17 12.317 2.318z" fill="#004314"/><path d="M366.777-42.947c-1.844.024-2.207.318-4.371-.53l-5.43 7.087 16.538 1.277 16.11-.218-2.126-6.458c-1.643.031-4.884-.058-6.816-1.716-.795-3.296-1.125-6.101-.413-8.721 1.169-2.019 2.264-2.947 3.793-5.356l-.941-12.101-16.21-1.07-1.393 12.708 3.925 5.21c-.163 1.872-.5 8.988-.771 8.495-.177.64-.221.339-.927.98z" fill="#fff"/><path d="M366.822-74.273l6.229-2.81 5.338.093 4.87 2.904-3.606 4.308-8.054-.187z" fill="#79b41d"/><path d="M387.895-43.18c17.456-2.065 21.922 13.228 19.387 24.633-3.597-2.267-7.993-4.267-12.644-6.182-.384-6.37-3.399-12.429-6.743-18.45z" fill="#004313"/><path d="M359.236-43.929c-12.752-.979-19.389 5.297-21.728 16.671 4.607 2.526 9.565 2.6 14.516 2.717 1.225-6.528 2.851-13.034 7.212-19.388z" fill="#004314"/><path d="M344.525-39.701c3.65-3.124 8.233-2.92 13.113-1.656l-1.259 2.185c-3.978-.434-7.83-.49-11.457.133-2.68 4.15-4.08 8.3-5.761 12.45l-1.653-.668c1.963-5.183 3.7-10.984 7.017-12.444z" fill="#fff"/><path d="M354.459-34.403l-.861 2.914c-2.961-.515-5.21-2.098-7.484-3.643.254 1.747-.299 4.812-1.986 9.735l-2.716-.463c.721-3.85 1.644-7.495 4.106-9.603 1.285-3.038 5.06-1.093 8.94 1.06zm45.629 11.854c1.312-2.922 1.991-6.848 1.192-13.113-3.106 2.46-3.487 7.164-3.642 12.053z" fill="#fff"/><path d="M401.28-35.662c-3.196-.914-6.093.26-8.94 1.788l1.192 2.65c2.756-.871 5.345-2.33 7.748-4.438zm1.259-2.914c-4.867-.973-9.72-1.93-12.517-.662l-1.126-2.185c5.985-2.59 9.916-.124 13.643 2.847zm0 0c2.429 2.283 8.624 10.246 2.251 18.477l-1.523-.993c1.045-6.05 3.107-12.275-.728-17.484z" fill="#fff"/><path d="M364.657-43.741c-5.344 2.793-10.074 12.92-7.681 22.823l-4.952-3.623c.996-5.728 2.21-11.57 7.212-19.388z" fill="#004319"/><path d="M365.518-58.045c.848-4.317 3.614-8.075 6.08-11.92-2.62-2.105-4.848-2.57-6.41-.266-3.532 7.053-.744 8.915.33 12.186zm14.135-11.733c2.537-.894 4.734-.095 6.925.739.577 4.615-.268 8.43-2.516 11.457-.873-4.961-1.807-9.83-4.409-12.196z" fill="#76b41b"/><path d="M360.636 27.735c2.063-11.535 4.212-22.442 6.802-33.615l-4.056-.276c-4.058 10.872-7.509 22.058-10.407 33.8zm20.464-.105c-1.159-11.902-2.547-22.511-4.35-32.772h3.227c1.783 6.684 4.635 17.24 7.558 32.796zM369.743-5.51h5.163a1230.904 1230.904 0 013.06 33.1l-13.239.176c1.539-11.042 3.148-22.086 5.016-33.277z" fill="#004314"/><path d="M385.924-7.862l-.15 2.922c-10.409-.89-17.41-.547-25.297-.525l.185-3.088c8.166-.007 15.378-.778 25.215.553z" fill="#004314"/><path d="M376.362-7.42l5.085-28.228-13.56-.391 2.086 28.554z" fill="#004314"/><path d="M358.771-2.389l19.232-1.2c1.576-2.442 2.755-4.932 2.385-7.616l-5.136-.083-2.434-2.236-5.644.09-7.572 4.722zm47.465-13.681l-.13 35.11-6.813.262-4.717-41.792z" fill="#77b41b"/><path d="M393.392-22.198l.46-4.057 13.43 7.708-.2 3.494c-3.591-2.221-9.631-5.075-13.69-7.145z" fill="#004314"/><path d="M387.895-43.18l-3.635.83c4.673 8.232 8.163 15.162 5.54 22.179l4.262 1.397c.225-5.528 2.956-8.193-6.167-24.405z" fill="#004319"/><path d="M338.331-25l-6.145 13.222-.128 2.472c9.055 7.88 17.9 7.999 26.713 6.917l.831-6.323c-4.085-.897-8.358-2.358-13.175-5.45l7.194-9.754z" fill="#79b41d"/><path d="M337.508-27.258l17.3 1.925-.83 3.688-17.702-2.397z" fill="#004313"/></g><path d="M362.837-42.545l4.308 1.14 2.007-1.498.291-9.933-3.96-5.312 2.586 4.973c.066 3.88.167 7.61-.066 8.222-.177.641-.553 1.282-1.26 1.923-1.846.024-1.518-.417-2.086-.711-.678.291-1.227.777-1.82 1.196zm21.423.195c-1.645.03-2.122.98-4.057-.68-.234-6.967 2.475-9.893 3.846-14.654l-3.84 5.337-2.267 9.403 3.781 2.332 3.086-.78z" fill="#79b41b" fill-rule="evenodd"/><path d="M152.3 76.2c9.3-8.9 2.4-14.3 21-37.9 1.5-3.2 5-15.1 12.8-15 5 1.1 39.9.1 48.9 9.1 13.4 5 30.9 27.6 44.3 45.7 18 24.1 26.8 71.6 25.2 82.7-2.9 16 7.4 38.6-20.7 69.2-18.8 18-38.5 36.2-65.8 39.8-25.7 3.9-33.1-13.5-43.3-27.7-3.5 11.2-5.3 29.6-12.8 47-7.2 13.3-22 13.5-34.9 12.5-28.8-2.9-56.7-14.1-84-32.6 5.2 1.9-36.2-15-38-56.9-7.1-44.5-6.2-70.8 12.8-103.9 38.5-44 33.1-42.3 40.7-50.3 6-4.5 16.8-13.6 32-24.8 7.6-2.8 15.2-6 22.7-5.6 6.5 1.3 12.8-.8 20.4 13.2 5.5 12.7 13.6 25.2 18.7 35.5" clip-path="url(#a)" clip-rule="evenodd" fill="#b50800" fill-rule="evenodd" transform="translate(354.94 -36.045) scale(.02738)"/><path d="M70.5 127.9c-5.8-11.5-13-6.4-30.2-31.1-2.6-2.4-13-9.2-10.7-16.6 2.5-4.5 11.6-38.1 22.8-44.2C61.1 24.6 87.8 14.4 109 6.8c28.3-10.2 76.2-4.9 86.5-.2 14.4 7.4 39.1 4.1 60.2 39.9 11.8 23.3 23.6 47.4 19.1 74.6-3.7 25.7-22.5 27.8-39.1 33.4 9.7 6.6 26.8 13.6 41.3 25.9 10.7 10.7 6.5 24.9 1.9 37-11 26.6-29.9 50.1-55.4 70.9 3.3-4.4-24.8 30.3-65.5 19.9-44.7-6.1-69.5-14.5-95.7-42.3-30.9-49.6-31-44-36.4-53.5-2.6-7.1-8.1-20-14.5-37.9-.5-8.1-1.3-16.3 1.2-23.4 3.1-5.8 3-12.5 18.5-15.7 13.8-1.5 28-5.6 39.4-7.5" clip-path="url(#a)" clip-rule="evenodd" fill="#da0a00" fill-rule="evenodd" transform="translate(354.94 -36.045) scale(.02738)"/><path d="M112.8 107.5l-1.6-4.1 23.3-9.7 2.7 5.1c2.9-3.4 5.6-5.4 7.7-5.7 7.8-1.4 12.2 4.3 12.6 5.9l.5-7.2c3-.1 10.9.9 14.3 2.1 5.1 2.2 7.6 3.4 11 10.2 2.1 5.5.6 8.3-.7 11.7-1.2 2.4-3.1 4.8-5.1 6.4l3.1 1.9 17.5-18.3c2.5.9 11.2 9.4 12.5 13.3 2.3 4.7 1.7 9.9.5 12.6l2.5-.2c1.8 9 3.8 15.4 6.4 23.4l-8.2 3c2.9 1.3 5 2.1 7 6.5 1.9 5.1.8 8.5-.7 11.4-1.7 3-3.8 5.4-5.9 7.9l-1.1 4.1c-2.2 3.1-4.1 6.4-5.8 9.4-4.3 9.2-3.4 7-4.8 10.5l-4.1-.4 1.9 3.4c-3 2.2-6 4.4-9.1 6.5l-2-.5s-5.9-6.8-8.5-10l-1.5 1.5c-.7 4.3-3 8.2-5.8 11.1-2.2 1.9-4.5 3.8-7.4 4.6-2.5.5-5.7 1.1-9 .5l-.5-2.5s-2.4.1-3.4.1l-.2 3.6c-4.8.1-7.7-.2-10.7-.4-.7-1.2-1.2-2.1-1.7-3.2-.2-7.8.2-18.4.8-29.2-4.8 10.1-10.7 22.8-11.1 24.9l-2.9-.4c-1.8-1.3-4.7-2.6-8.6-9.2-1.3-2.4-2.1-5.5-2.3-8.3-.2-1.7-.1-3.7.4-5.9l-5.1 4.4-2.1-.8c-.7-1.5-5.4-6.8-10-12.6l-.7-2.6c1.9-1.9 6-5 10.1-8.1l-.3-.8c-3.7 2-8.2.9-9.9.1-3.9-1.9-4.5-3.9-6-6.1-1.2-2.2-2.5-6.1-1.9-11.2.6-2.9 1.1-3.5 3-6.3.7-.9 2-2.2 2.7-2.7 3 1.8 5.3 3.9 8.1 5.8 1 .6 2.5 1.1 3 1.2.1-.4 2.7-2.8 2.7-2.8-.7-3.1-1.3-5.6-1.3-8.9 0-.6-.1-2.2.3-3 4.3-.4 9.8-1.3 13.2-1.8 1.3-.2 3.3-.6 3.4-1.6 0-1-.7-1.4-2-2-2.3-.7-3.9-.8-7-1.2-3.1-.3-6.2-.1-9-1-2.9-.9-7-2.9-8.8-5.7-1.9-3.5-2.6-6.5-1.8-10.3.6-1.8 1.5-3.8 4.4-6 1.9-1.4 4.7-2.5 7.9-2.9 1.7-.2 3.4 0 5.1.5" clip-path="url(#b)" clip-rule="evenodd" fill="#fff" fill-rule="evenodd" transform="translate(354.94 -36.045) scale(.02738)"/><path d="M168.4 173.2v.1l-.8-.1z" clip-path="url(#b)" fill="#fff" transform="translate(354.94 -36.045) scale(.02738)"/><path d="M118.9 140.3c.5 2.2.9 4.7 1.3 6.5 4.5.1 9.1 0 13.2-4.8 3.5-4.9-.2-13.1-6.5-16.5-.6-.3-4.7-2.4-10.6-2.2-3 .1-5.7.2-7.9-.3-1.9-.3-3.5-2.9-1.6-5.1 1.8-1.7 4.3-1.9 8.1-.1l1.4-7c-4.2-1.2-7.8-1.8-12.1.1-8.6 3.8-7.4 12.6-2 16.8 2.2 1.7 7.3 2.4 10.1 2.6 2.7.2 11.2-.1 14 4.1 1.4 2.3.8 3.9-1.4 4.9-1.9.8-4 1-6 1m-8.9 1.2c1.8-.4 3.9-.5 6.1-1 .5 2.4 1.2 4.8 1.6 7l-6.7.7c-.5-1.9-.6-4.4-1-6.7m26.7 30c-4.5 3.6-10.2 6.9-15.3 11.4-3.9 3.9-7.8 8.3-11.8 11.5l-9.4-11.4 5.2-4.4c1.6 2.2 3.6 4.4 5.4 6l5.2-5.1-4.6-5.6 4.9-3.7 4.2 5.3 7.2-5.6-1.8-2.4c.1.4-.5 1.3-1 2l-5.8-2.5c1.4-2.2 3.1-4.5 2.1-7.1-1.7-3.5-7.1-2.8-8.2 1.4-1.4 3.8-2.6 6.6-5.9 8.6-7.2 4.3-13.3-1.8-14.8-6.6-1.2-4.5-.6-8.6 3-12.3l5.3 3.9c-2.4 3.2-2.9 5.4-1.5 7.7 2.6 3.9 5.7.9 6.6-1.1 1.5-3.1 2.5-6.4 5.2-8.3 4.1-3.2 10-2.2 13.2-.3 6.2 3.6 3.5 10.8 3.8 11.1l2.5-1.8zm-2.8 13.5c-9.6.9-12.1 10.4-8.9 18zm8.4-4.8l-16 34.2c-3.1-3.2-5.7-4.3-7.9-11.2-1.3-4.8-1-10.8 2-15.9 5.2-8.6 13.9-9.6 21.9-7.1M142 216c2.4.2 4.1.1 7 .2.2 1.7-.1 4.5-.3 6.9l-6.5-.2c-.2-2.2-.1-4.6-.2-6.9m9.1-34.1l-7.3-.4c-1.1 10.8-1.1 21.5-.7 31.9l7.3-.2c-.4-9.6-.4-19.6.7-31.3m.5 6.6l4.7 6c1.9-2.3 5-3.3 7.8-.6 4.1 4.7 3.7 9.7 3.6 12.6-.8 6.7-6.5 7.1-11.3 7.5l.7 6.9c.3-.2 11.7 2.3 17-10.7 1.9-5.8.1-16.6-8-23.9-3.7-2.9-9.5-3.7-14.5 2.2m17.8-11.9c1.8 2.2 2.2 3.7 5.8 8.1 3.8 4.6 10 12.1 12.4 15-1.5 1.9-3.2 3.4-5 4.9-7.8-8.8-14.6-17.6-18-23.8zm21.9 27c-2 1.5-4.6 2.6-6 4.5l4.5 6c1.3-1.2 2.7-2.5 5.3-4.5-1.2-2.3-2.3-5.1-3.8-6m-16-33.8c7.5 6.3 14.9 12.2 23.3 17.5 1.6-3.1 3-5.1 4.9-8.1l6.1 4.1c-5.3 8.4-8.4 14.6-11.1 20.7-2.2-.9-4.5-2-6.8-3.2 1.1-2.3 2.1-4.6 3.3-7.2-8.4-5.1-16.2-11.7-24-18.1zm34.7-34.5c-6.1 2.9-11.2 5.2-17.6 8.3-6.7 3.2-12.6 6.3-15.7 8l6.4 12c-1.7 1.4-2 3.7-2 4.5-.1 3.7 1.4 5.6 2.6 6.9 3.2 3.2 6.2 3.8 9.1 4 4.1 0 6.8-1.9 9.8-4.4 1.8-1.6 3.2-4 5.5-6.8 1-1.3 2.5-.5 2.4.9-.3 2.8-3.3 5.9-4.3 7.3l5.5 4c3-3.6 5.5-7.4 5.4-12.4-.1-5.2-5.4-7.6-8.7-7.1-4.6.6-6.5 4.4-9.5 7.8-3.1 3.2-5.8 4.1-7.2 3.8-2.5-.4-3-2.7-2.7-4.4.4-1.4 1.2-2.3 2-3.1l-2.4-1.8 2.7-1.4c-1.5-2.4-2.6-4.6-3.9-7l6.4-3.4 4.3 8.3 6.6-3.3-4.1-8.3 5.9-2.9c.6 2.1 2.6 5.7 4.1 10 2.3-.5 4-1.4 6.5-2.4-3.1-6.7-5.1-13.1-7.1-17.1m-10.4-14.1l-8 8.4c1.9 1 3.7 1.2 6.1.9 1.5-.2 2.7-1 3.5-2.1 1.1-2-.2-5.3-1.6-7.2M169.1 142l5.9 5.9 10.8-11.8c2.4 1 5.8 2.4 8.8 2.6 6.9.1 13.3-3 14.6-8.5 1-6.7-1.3-10.6-3.4-13.7-2.1-2.6-4.2-4.4-6.2-6.2-8 6.7-19 19.5-30.5 31.7m4.7-18.5c2 1.2 4.1 2.5 6 3.5-1.3 2.1-2.8 4-4.2 5.9-1.9-1.3-4.2-2.6-5.6-4 1.3-1.8 2.4-3.7 3.8-5.4m-6.6-20.9l-.7 13.5c1.9-.2 4-.1 6.8-3.1.8-.9 2.1-3.6-.1-6.5-1.6-2.2-3.8-3.2-6-3.9m-6.2-7.3c3.4.1 6.7.3 10.8 1.8 2.5 1.2 4.8 2.2 7.5 6.6 3 5.5 1.8 8.9-.6 12.9-3.2 4.7-9.5 6.4-12.4 6.5l-.7 12H159zm-15.7 11.1c.8-2.5 4.1-1.9 5.4 1.5 1.2 3.2 1.9 7.9 1.6 11-.6 4.3-2.9 5.8-5.5 2-2.6-4.5-2.9-10.1-1.5-14.5m10.7-2.3c1.2 2.9 2.8 7.3 2.7 14.2 0 4.2-2.1 12.8-8.3 12.7-3.9-.1-6.2-2.1-7.4-3.8-4-5.6-6.1-15.3-3.7-23.6 3.9-11.1 13.6-7.3 16.7.5m-40.5 2.2c6-2.9 13.3-6.5 18.2-8.8 1 2.1 2.2 4.4 3.2 6.6l-5.2 2.6 11.5 28.8-6.2 2.5-11.8-28-6.5 3.1zm52.5 51.8c0 8.2-6.6 14.8-14.8 14.8-8.2 0-14.8-6.6-14.8-14.8 0-8.2 6.6-14.8 14.8-14.8 8.2 0 14.8 6.6 14.8 14.8" clip-path="url(#b)" clip-rule="evenodd" fill-rule="evenodd" transform="translate(354.94 -36.045) scale(.02738)"/><g fill="#ffd900"><path d="M395.247 10.887c.466.183.846-.242.902-.661.182-1.358-.695-3.03-.683-3.06h-.001c.007.037-1.021.96-1.004 2.396.006.444.32 1.141.786 1.325z" fill-rule="evenodd"/><path d="M392.519 10.916c.477-.299.274-1.392-.125-2.081-1.29-2.233-3.558-3.636-3.581-3.693h-.002c.043.046.36 2.67 1.854 4.775.462.65 1.376 1.298 1.853 1z"/><path d="M391.667 11.82c.314-.497-.208-1.573-.769-2.148-1.815-1.864-4.207-2.48-4.245-2.53h-.001c.05.032 1.157 2.68 3.107 4.33.603.511 1.593.846 1.907.349z" fill-rule="evenodd"/><path d="M391.317 13.488c.075-.952-.947-2.1-1.772-2.5-2.669-1.296-5.319-.367-5.38-.411v.001c.064.007 2.404 2.967 5.105 3.857.835.275 1.97.005 2.046-.947z" fill-rule="evenodd"/><path d="M391.712 15.71c-.416-1.042-1.83-1.556-2.707-1.421-2.84.432-4.547 3.172-4.62 3.166v.002c.057-.036 3.462 1.485 6.124.606.823-.271 1.618-1.31 1.203-2.353z" fill-rule="evenodd"/><path d="M392.671 17.55c-.682-.826-1.95-.644-2.58-.084-2.038 1.81-2.402 5.345-2.46 5.375l.001.002c.03-.063 3.182-.22 4.929-2.384.54-.67.792-2.082.11-2.909z" fill-rule="evenodd"/><path d="M394.31 19.522c-.932-.533-1.901.347-2.174 1.295-.884 3.067.384 7.113.35 7.176l.001.003c-.003-.086 2.538-1.952 3.024-5.247.15-1.019-.27-2.693-1.201-3.226z" fill-rule="evenodd"/><path d="M396.13 20.46c-.817-.095-1.186 1.216-1.056 2.273.42 3.423 2.643 6.817 2.64 6.896h.002c-.03-.082 1.086-3.086.317-6.549-.238-1.07-1.086-2.524-1.902-2.62z" fill-rule="evenodd"/><path d="M397.925 20.341c-.597.273-.467 1.527-.064 2.355 1.305 2.678 3.857 4.555 3.879 4.622h.001c-.046-.056-.155-3.046-1.716-5.607-.482-.792-1.502-1.641-2.1-1.37z" fill-rule="evenodd"/><path d="M398.763 19.302c-.318.353-.095 1.147.24 1.579 1.078 1.398 2.796 1.906 2.816 1.944-.033-.025-.447-1.974-1.663-3.222-.376-.385-1.074-.653-1.393-.3zm-5.013-8.772c.601-.012.829-.854.699-1.497-.42-2.08-2.16-3.986-2.161-4.035.024.048-.696 2.001-.018 4.076.21.641.878 1.467 1.48 1.456z" fill-rule="evenodd"/></g><path d="M376.218-65.024c1.754-2.107 3.378-1.063 5.007-.146-2.713-.809-3.882-.279-4.667.583zm-1.313-.097c-.965-1.833-3.042-.744-5.007.048 1.596-.289 3.145-1.344 4.861.292zm.365 2.361c-.274.343-.04.545.058.688.586.853-.297 1.175-.812 2.25-.596.34-.774.68-.778 1.02 1.723-1.501 2.274-.265 2.869.049-.762-.841-.68-2.685-1.338-4.007zm-2.367 6.088c.402-.619 1.073-.497 1.516-.866.762.242 1.523.306 2.285 0 .486.398.535.47 1.662.7-.582.559-1.486.848-1.857 1.05-.946-.156-1.497-.065-2.09 0-.413-.202-.976-.46-1.516-.884zm.641-7.234c-.16.393-.262.834-.194 1.41-1.418.2-2.217-.16-3.16-.39.62-.967.894-2.373 3.354-1.02zm4.181 0c.156.405.164.81 0 1.215 1.617.535 2.446.325 3.257.097-.501-.818-.007-2.284-3.257-1.312z" fill="#79b41b" fill-rule="evenodd"/><ellipse cx="379.281" cy="-63.074" rx=".783" ry=".556" fill="#004314"/><ellipse ry=".556" rx=".783" cy="-63.219" cx="371.867" fill="#004314"/></g><text style="line-height:125%;-inkscape-font-specification:sans-serif" x="-22.162" y="177.381" font-weight="400" font-size="52.49" font-family="sans-serif" letter-spacing="0" word-spacing="0" stroke-width=".615" transform="translate(24.073 38.413)"><tspan x="-22.162" y="177.381" style="-inkscape-font-specification:sans-serif">DOUAISIS</tspan></text></svg>